<svg xmlns="http://www.w3.org/2000/svg" viewBox="0 0 512 512" width="512" height="512" role="img" aria-label="Crachá">
  <defs>
    <linearGradient id="bg" x1="0" y1="0" x2="1" y2="1">
      <stop offset="0" stop-color="#5a2a05"/>
      <stop offset="0.5" stop-color="#f97316"/>
      <stop offset="1" stop-color="#fbbf24"/>
    </linearGradient>
  </defs>
  <circle cx="256" cy="256" r="256" fill="url(#bg)"/>
  <!-- cordão -->
  <path d="M186 40 L236 140 M326 40 L276 140" fill="none" stroke="#fff3d6" stroke-width="18" stroke-linecap="round"/>
  <!-- presilha -->
  <rect x="226" y="124" width="60" height="34" rx="14" fill="#fff"/>
  <rect x="244" y="134" width="24" height="14" rx="7" fill="#f97316"/>
  <!-- crachá -->
  <rect x="136" y="170" width="240" height="300" rx="40" fill="#fff"/>
  <!-- escudo -->
  <path d="M256 215 L322 240 V296 Q322 340 256 372 Q190 340 190 296 V240 Z" fill="#f97316"/>
  <path d="M256 250 L267 278 L297 281 L274 301 L281 330 L256 315 L231 330 L238 301 L215 281 L245 278 Z" fill="#fff"/>
  <!-- linhas de texto -->
  <g stroke="#fdba74" stroke-width="14" stroke-linecap="round">
    <path d="M186 412 H326"/>
    <path d="M216 440 H296" opacity="0.7"/>
  </g>
</svg>
